<?xml version="1.0" encoding="UTF-8"?>
<svg width="413px" height="336px" viewBox="0 0 413 336" version="1.1" xmlns="http://www.w3.org/2000/svg" xmlns:xlink="http://www.w3.org/1999/xlink">
    <!-- Generator: Sketch 53.2 (72643) - https://sketchapp.com -->
    <title>503</title>
    <desc>Created with Sketch.</desc>
    <defs>
        <linearGradient x1="49.99502%" y1="100.003398%" x2="49.99502%" y2="0.000180167073%" id="linearGradient-1">
            <stop stop-color="#808080" stop-opacity="0.25" offset="0%"></stop>
            <stop stop-color="#808080" stop-opacity="0.12" offset="54%"></stop>
            <stop stop-color="#808080" stop-opacity="0.1" offset="100%"></stop>
        </linearGradient>
    </defs>
    <g id="Page-1" stroke="none" stroke-width="1" fill="none" fill-rule="evenodd">
        <g id="503">
            <rect id="Rectangle" fill="#2FCBC4" x="0" y="0" width="412.199975" height="335.99998"></rect>
            <ellipse id="Oval" fill="#6C63FF" fill-rule="nonzero" opacity="0.1" cx="157.613991" cy="289.694983" rx="29.2319983" ry="4.69499972"></ellipse>
            <path d="M51.5519969,161.15999 L81.9989951,161.15999 L81.9989951,202.658988 L53.7809968,202.658988 C53.7059968,203.084988 53.6339968,203.513988 53.5559968,203.942988 L81.9989951,203.942988 L81.9989951,237.410986 C81.9479951,237.395986 81.9029951,237.377986 81.8549951,237.359986 C81.0509952,237.041986 80.2529952,236.705986 79.4549953,236.345986 L78.9449953,236.114986 C78.1449953,235.736986 77.3449954,235.336986 76.5449954,234.914986 C76.2659955,234.767986 75.9869955,234.614986 75.7109955,234.458986 C71.2697442,231.971149 67.2351012,228.818704 63.7469962,225.110987 C63.6449962,225.011987 63.5489962,224.906987 63.4469962,224.810987 C62.9609962,224.282987 62.4839963,223.748987 62.0219963,223.202987 L61.5119963,222.602987 C60.9659964,221.933987 60.4379964,221.246987 59.9249964,220.550987 C59.8499964,220.448987 59.7779964,220.346987 59.6999964,220.250987 C57.6136379,217.358171 55.8812986,214.22586 54.5399967,210.920987 C54.4979968,210.821987 54.4619968,210.713987 54.4229968,210.620987 C54.0109968,209.560988 53.6459968,208.490988 53.3279968,207.410988 C53.1899968,206.957988 53.0579968,206.510988 52.9439968,206.039988 C52.9019968,205.901988 52.8659968,205.766988 52.8329969,205.631988 C51.128997,198.980988 50.927997,192.071989 50.927997,185.210989 C50.927997,184.409989 50.927997,183.605989 50.927997,182.810989 C50.927997,180.035989 50.960997,177.242989 51.008997,174.45299 C51.008997,173.72999 51.038997,173.00999 51.053997,172.28399 C51.095997,170.44199 51.155997,168.59999 51.2339969,166.75799 C51.2519969,166.24499 51.2759969,165.73499 51.3029969,165.22499 C51.3029969,164.93099 51.3179969,164.63699 51.3479969,164.34299 C51.4199969,163.27499 51.4799969,162.21599 51.5519969,161.15999 Z" id="Path" fill="#FFFFFF" fill-rule="nonzero" opacity="0.1"></path>
            <path d="M81.9989951,114.953993 L65.2979961,114.953993 C68.0128329,110.704726 70.9791173,106.621451 74.1809956,102.725994 C76.6619954,99.6779941 79.2809953,96.7079942 81.9989951,93.8459944 L81.9989951,114.953993 Z" id="Path" fill="#FFFFFF" fill-rule="nonzero" opacity="0.1"></path>
            <path d="M81.9989951,116.237993 L81.9989951,159.87599 L51.6479969,159.87599 C51.6479969,159.74999 51.6689969,159.62099 51.6779969,159.49499 C51.7049969,159.149991 51.7319969,158.804991 51.7619969,158.462991 C51.7949969,158.060991 51.8309969,157.655991 51.8699969,157.262991 C51.9089969,156.869991 51.9509969,156.389991 51.9959969,155.954991 C52.0409969,155.519991 52.0829969,155.078991 52.1339969,154.643991 C52.1849969,154.208991 52.2299969,153.773991 52.2839969,153.341991 C52.3379969,152.909991 52.3859969,152.471991 52.4429969,152.039991 C52.4879969,151.679991 52.5359969,151.322991 52.5839969,150.962991 C52.6529969,150.455991 52.7249969,149.945991 52.8029969,149.441991 C52.8029969,149.366991 52.8239969,149.288991 52.8359969,149.216991 C53.3835534,145.527478 54.1296362,141.87017 55.0709967,138.260992 C56.0563741,134.474949 57.3146656,130.765245 58.8359965,127.160992 C60.452892,123.390516 62.3460407,119.7446 64.4999962,116.252993 L81.9989951,116.237993 Z" id="Path" fill="#FFFFFF" fill-rule="nonzero" opacity="0.1"></path>
            <path d="M89.2679947,161.15699 L89.2679947,202.658988 L154.298991,202.658988 L154.298991,161.15699 L89.2679947,161.15699 Z M89.2679947,203.939988 L89.2679947,239.579986 C89.6399947,239.657986 90.0089946,239.732986 90.3749946,239.795986 C90.8729946,239.891986 91.3679946,239.978986 91.8749945,240.053986 C91.9709945,240.068986 92.0699945,240.083986 92.1749945,240.092986 C92.3729945,240.125986 92.5769945,240.152986 92.7749945,240.179986 C93.2759944,240.248986 93.7739944,240.305986 94.2749944,240.350986 C94.5119944,240.374986 94.7519944,240.395986 94.9919943,240.413986 L95.5709943,240.458986 L95.5709943,240.458986 C95.8859943,240.482986 96.1979943,240.500986 96.5069942,240.509986 C96.6989942,240.509986 96.8909942,240.527986 97.0889942,240.533986 C97.2389942,240.533986 97.3889942,240.533986 97.5449942,240.533986 C97.7009942,240.533986 97.9229942,240.533986 98.1119942,240.533986 C98.3699941,240.533986 98.6279941,240.533986 98.8829941,240.533986 L99.2279941,240.533986 C99.4859941,240.533986 99.7439941,240.533986 99.998994,240.509986 L100.016994,240.509986 C100.193994,240.509986 100.373994,240.509986 100.553994,240.485986 C100.603949,240.488972 100.654039,240.488972 100.703994,240.485986 C100.853994,240.485986 101.003994,240.485986 101.147994,240.464986 L101.252994,240.464986 L102.257994,240.386986 C102.587994,240.356986 102.920994,240.317986 103.256994,240.281986 L103.940994,240.200986 C106.723726,239.811072 109.475537,239.225624 112.175993,238.448986 C118.241993,236.756986 124.175993,234.389986 130.238992,232.655986 C138.077992,230.420986 146.738991,229.322986 154.313991,232.055986 L154.313991,203.939988 L89.2679947,203.939988 Z M154.298991,114.953993 L154.298991,59.7029964 C147.179204,59.6258594 140.07873,60.4585998 133.169992,62.1809963 C116.702993,66.317996 101.927994,75.2909955 89.2679947,86.7509948 L89.2679947,114.950993 L92.5319945,114.950993 L92.5319945,116.231993 L89.2679947,116.231993 L89.2679947,159.87599 L154.298991,159.87599 L154.298991,116.234993 L105.932994,116.234993 L105.932994,114.953993 L154.298991,114.953993 Z M237.827986,96.2909943 C233.753986,96.1469943 229.703986,94.8569943 226.040987,92.8649945 C219.035987,89.0549947 213.440987,83.171995 207.188988,78.2069953 C194.198988,67.865996 178.088989,61.6259963 161.56199,60.0779964 L161.56199,114.953993 L254.396985,114.953993 L254.627985,114.710993 L237.827986,96.2909943 Z M246.284985,94.7909944 L255.251985,104.630994 L255.251985,92.2109945 C252.248985,92.5829945 249.617985,93.4679944 246.296985,94.7789944 L246.284985,94.7909944 Z M255.251985,248.429985 L255.251985,203.939988 L236.144986,203.939988 C236.093986,203.750988 236.042986,203.558988 235.982986,203.366988 C236.039986,203.558988 236.087986,203.750988 236.141986,203.939988 L161.57399,203.939988 L161.57399,236.114986 C162.28199,236.639986 162.98099,237.191986 163.67399,237.752986 L163.67399,237.752986 C164.42099,238.352986 165.15899,238.985986 165.89999,239.606986 L166.64699,240.224986 C167.00399,240.524986 167.36399,240.824986 167.72699,241.106986 C168.44699,241.690986 169.17399,242.266986 169.90799,242.834986 C170.27099,243.134986 170.64299,243.404985 171.01199,243.686985 C176.870123,248.165896 183.049797,252.207802 189.500989,255.779985 C190.946989,256.579985 192.405989,257.360985 193.877988,258.122985 C194.858988,258.623985 195.845988,259.121985 196.835988,259.604985 C198.323988,260.330984 199.823988,261.030984 201.335988,261.704984 L201.335988,261.704984 C215.275894,267.962507 230.016322,272.256414 245.135985,274.463984 C248.493985,274.959984 251.864985,275.349984 255.248985,275.633984 L255.248985,248.426985 L255.548985,248.426985 L255.251985,248.429985 Z M161.57399,116.234993 L161.57399,159.87599 L255.263985,159.87599 L255.263985,116.234993 L161.57399,116.234993 Z M161.57399,161.15699 L161.57399,202.658988 L255.263985,202.658988 L255.263985,161.15699 L161.57399,161.15699 Z M262.535984,92.1569945 L262.535984,106.010994 L273.980984,93.4529944 C270.188984,92.8409945 266.373984,92.4039945 262.535984,92.1419945 L262.535984,92.1569945 Z M262.535984,161.17199 L262.535984,202.658988 L353.660979,202.658988 L353.660979,161.15699 L262.535984,161.17199 Z M353.327979,251.723985 L353.648979,203.939988 L262.535984,203.939988 L262.535984,276.110984 C268.405492,276.357562 274.284025,276.28746 280.145983,275.900984 L280.145983,275.900984 L280.247983,275.900984 C283.047983,275.724984 285.834983,275.468984 288.608983,275.132984 L288.671983,275.132984 C303.471167,273.410617 317.942011,269.549368 331.63198,263.669984 L353.327979,251.723985 Z M371.231978,167.99099 C370.889978,167.18399 370.532978,166.38299 370.169978,165.59099 C369.491978,164.09099 368.774978,162.63299 368.036978,161.17499 L360.926978,161.17499 L360.926978,202.658988 L378.902977,202.658988 C378.893977,190.910989 375.920978,178.910989 371.240978,167.97599 L371.231978,167.99099 Z M360.926978,203.954988 L360.926978,245.054985 C365.990978,240.200986 370.268978,234.647986 373.349978,228.299986 C377.054978,220.655987 378.749977,212.378987 378.887977,203.948988 L360.926978,203.954988 Z M360.926978,149.078991 L360.926978,159.87899 L367.370978,159.87899 C365.421551,156.161158 363.273444,152.550938 360.935978,149.063991 L360.926978,149.078991 Z M299.126982,100.298994 C298.652982,100.118994 298.178982,99.935994 297.701982,99.7589941 C292.671242,97.9011786 287.530432,96.3562305 282.308983,95.1329943 L264.794984,114.353993 L264.794984,114.353993 L264.458984,114.710993 L264.683984,114.956993 L327.017981,114.956993 C318.336608,108.981136 308.97727,104.055752 299.135982,100.283994 L299.126982,100.298994 Z M328.84498,116.249993 L263.813984,116.249993 L262.535984,117.419993 L262.535984,159.87599 L273.737984,159.87599 L273.755984,159.87599 L273.755984,159.87599 L353.672979,159.87599 L353.672979,139.310992 C346.443656,130.567729 338.0996,122.809663 328.85398,116.234993 L328.84498,116.249993 Z" id="Shape" fill="#FFFFFF" fill-rule="nonzero" opacity="0.1"></path>
            <path d="M81.9989951,138.248992 L81.9989951,159.87599 L51.6479969,159.87599 C51.6479969,159.74999 51.6689969,159.62099 51.6779969,159.49499 C51.7049969,159.149991 51.7319969,158.804991 51.7619969,158.462991 C51.7949969,158.060991 51.8309969,157.655991 51.8699969,157.262991 C51.9089969,156.869991 51.9509969,156.389991 51.9959969,155.954991 C52.0409969,155.519991 52.0829969,155.078991 52.1339969,154.643991 C52.1849969,154.208991 52.2299969,153.773991 52.2839969,153.341991 C52.3379969,152.909991 52.3859969,152.471991 52.4429969,152.039991 C52.4879969,151.679991 52.5359969,151.322991 52.5839969,150.962991 C52.6529969,150.455991 52.7249969,149.945991 52.8029969,149.441991 C52.8029969,149.366991 52.8239969,149.288991 52.8359969,149.216991 C53.3835534,145.527478 54.1296362,141.87017 55.0709967,138.260992 L81.9989951,138.248992 Z" id="Path" fill="#FFFFFF" fill-rule="nonzero" opacity="0.1"></path>
            <polygon id="Path" fill="#FFFFFF" fill-rule="nonzero" opacity="0.1" points="112.160993 122.483993 112.160993 159.87599 89.2679947 159.87599 89.2679947 122.483993 92.5319945 122.483993 92.5319945 109.823993 105.929994 109.823993 105.929994 122.483993"></polygon>
            <rect id="Rectangle" fill="#FFFFFF" fill-rule="nonzero" opacity="0.1" x="89.2709947" y="161.15699" width="22.8899986" height="41.4989975"></rect>
            <path d="M89.2679947,203.942988 L112.160993,203.942988 L112.160993,238.442986 C109.460545,239.218939 106.708712,239.80339 103.925994,240.191986 L103.241994,240.275986 C102.905994,240.314986 102.572994,240.347986 102.242994,240.380986 C101.912994,240.413986 101.570994,240.437986 101.237994,240.458986 L101.132994,240.458986 C100.988994,240.458986 100.832994,240.476986 100.691994,240.479986 L100.538994,240.479986 C100.358994,240.479986 100.178994,240.497986 99.998994,240.503986 L99.998994,240.503986 C99.7439941,240.518986 99.4889941,240.521986 99.2279941,240.524986 C99.1169941,240.524986 99.0119941,240.524986 98.9009941,240.524986 C98.6429941,240.524986 98.3879941,240.524986 98.1299942,240.524986 L97.5629942,240.524986 C97.4099942,240.524986 97.2629942,240.524986 97.1039942,240.524986 L96.5249942,240.503986 C96.2249943,240.503986 95.9009943,240.470986 95.5889943,240.449986 L95.5889943,240.449986 L95.0129943,240.407986 L94.2959944,240.341986 C93.7919944,240.296986 93.2909944,240.239986 92.7959945,240.170986 L92.1959945,240.086986 L91.8959945,240.044986 C91.3949946,239.966986 90.8999946,239.882986 90.3959946,239.786986 C90.0269946,239.723986 89.6609947,239.645986 89.2889947,239.570986 L89.2679947,203.942988 Z" id="Path" fill="#FFFFFF" fill-rule="nonzero" opacity="0.1"></path>
            <polygon id="Path" fill="#FFFFFF" fill-rule="nonzero" opacity="0.1" points="255.266985 161.15699 255.266985 202.658988 161.57399 202.658988 161.57399 184.757989 211.478987 184.757989 211.478987 195.317988 236.387986 195.317988 236.387986 161.15699"></polygon>
            <path d="M255.563985,248.438985 L255.263985,248.438985 L255.263985,275.663984 C251.883985,275.377984 248.513985,274.988984 245.153985,274.496984 C230.02688,272.282312 215.280255,267.979278 201.335988,261.710984 C197.309988,259.898985 193.365988,257.920985 189.503989,255.776985 C183.052905,252.203041 176.872359,248.161221 171.01199,243.683985 C169.53999,242.555986 168.08699,241.401986 166.65299,240.221986 C165.65999,239.402986 164.67299,238.562986 163.67399,237.746986 C162.98099,237.185986 162.28199,236.633986 161.57399,236.105986 L161.57399,203.942988 L236.138986,203.942988 C236.087986,203.750988 236.036986,203.558988 235.982986,203.369988 C236.039986,203.558988 236.093986,203.750988 236.144986,203.942988 L255.263985,203.942988 L255.263985,248.420985 C255.365985,248.423985 255.464985,248.432985 255.563985,248.438985 Z" id="Path" fill="#FFFFFF" fill-rule="nonzero" opacity="0.1"></path>
            <path d="M304.493982,114.953993 L292.193983,114.953993 L292.193983,111.131993 L297.707982,111.131993 L297.707982,99.7469941 C298.185982,99.920994 298.661982,100.099994 299.135982,100.283994 L299.135982,111.131993 L304.493982,111.131993 L304.493982,114.953993 Z" id="Path" fill="#FFFFFF" fill-rule="nonzero" opacity="0.1"></path>
            <path d="M334.12798,159.87599 L273.743984,159.87599 C273.743984,159.87599 273.743984,159.87599 273.764984,159.89099 L273.737984,159.87599 L262.535984,159.87599 L262.535984,118.070993 L265.709984,118.070993 L265.709984,148.970991 L280.214983,148.970991 L280.214983,130.670992 L292.196983,130.670992 L292.196983,116.237993 L304.496982,116.237993 L304.496982,130.682992 L316.478981,130.682992 L316.478981,148.982991 L334.12798,148.982991 L334.12798,159.87599 Z" id="Path" fill="#FFFFFF" fill-rule="nonzero" opacity="0.1"></path>
            <path d="M262.535984,161.15699 L262.535984,202.658988 L334.12798,202.658988 L334.12798,161.15699 L262.535984,161.15699 Z M353.561979,251.510985 L353.660979,218.660987 L334.12798,218.660987 L334.12798,203.960988 L262.535984,203.960988 L262.535984,276.110984 C268.405492,276.357562 274.284025,276.28746 280.145983,275.900984 L280.145983,275.900984 L280.247983,275.900984 C283.047983,275.724984 285.834983,275.468984 288.608983,275.132984 L288.671983,275.132984 C303.471167,273.410617 317.942011,269.549368 331.63198,263.669984 L353.561979,251.510985 Z" id="Shape" fill="#FFFFFF" fill-rule="nonzero" opacity="0.1"></path>
            <path d="M362.198978,203.942988 L378.899977,203.942988 C378.752977,212.369987 377.060978,220.646987 373.358978,228.290986 C370.277978,234.641986 365.996978,240.194986 360.938978,245.045985 L360.938978,218.645987 L362.198978,218.645987 L362.198978,203.942988 Z" id="Path" fill="#FFFFFF" fill-rule="nonzero" opacity="0.1"></path>
            <path d="M378.908977,202.658988 L362.198978,202.658988 L362.198978,167.97599 L371.240978,167.97599 C375.920978,178.910989 378.893977,190.910989 378.908977,202.658988 Z" id="Path" fill="#FFFFFF" fill-rule="nonzero" opacity="0.1"></path>
            <rect id="Rectangle" fill="#6C63FF" fill-rule="nonzero" opacity="0.1" x="245.153985" y="129.689992" width="10.1129994" height="13.1069992"></rect>
            <rect id="Rectangle" fill="#9B9B9B" fill-rule="nonzero" opacity="0.1" x="245.153985" y="161.15699" width="10.1129994" height="8.80499948"></rect>
            <rect id="Rectangle" fill="#9B9B9B" fill-rule="nonzero" opacity="0.1" x="245.153985" y="184.025989" width="10.1129994" height="13.1069992"></rect>
            <rect id="Rectangle" fill="#9B9B9B" fill-rule="nonzero" opacity="0.1" x="245.153985" y="211.193987" width="10.1129994" height="13.1069992"></rect>
            <path d="M255.263985,248.420985 C255.365985,248.420985 255.464985,248.420985 255.563985,248.438985 L255.263985,248.438985 L255.263985,251.483985 L245.153985,251.483985 L245.153985,238.361986 L255.263985,238.361986 L255.263985,248.420985 Z" id="Path" fill="#9B9B9B" fill-rule="nonzero" opacity="0.1"></path>
            <path d="M255.263985,265.523984 L255.263985,275.648984 C251.883985,275.362984 248.513985,274.973984 245.153985,274.481984 L245.153985,265.523984 L255.263985,265.523984 Z" id="Path" fill="#9B9B9B" fill-rule="nonzero" opacity="0.1"></path>
            <rect id="Rectangle" fill="#6C63FF" fill-rule="nonzero" opacity="0.1" x="161.57399" y="201.695988" width="43.3409974" height="1"></rect>
            <rect id="Rectangle" fill="#9B9B9B" fill-rule="nonzero" opacity="0.1" x="161.57399" y="203.939988" width="43.3409974" height="3.68999978"></rect>
            <rect id="Rectangle" fill="#9B9B9B" fill-rule="nonzero" opacity="0.1" x="161.57399" y="219.725987" width="43.3409974" height="5.93399965"></rect>
            <path d="M204.911988,237.755986 L204.911988,243.689985 L171.01199,243.689985 C169.53999,242.565986 168.08599,241.411986 166.64999,240.227986 C165.65699,239.408986 164.67299,238.568986 163.67099,237.755986 L204.911988,237.755986 Z" id="Path" fill="#9B9B9B" fill-rule="nonzero" opacity="0.1"></path>
            <path d="M204.911988,255.782985 L204.911988,261.710984 L201.332988,261.710984 C197.310988,259.896985 193.367988,257.917985 189.503989,255.773985 L204.911988,255.782985 Z" id="Path" fill="#9B9B9B" fill-rule="nonzero" opacity="0.1"></path>
            <rect id="Rectangle" fill="#9B9B9B" fill-rule="nonzero" opacity="0.1" x="280.148983" y="165.17999" width="8.53199949" height="8.53199949"></rect>
            <rect id="Rectangle" fill="#9B9B9B" fill-rule="nonzero" opacity="0.1" x="95.4149943" y="125.426993" width="8.53199949" height="8.53199949"></rect>
            <rect id="Rectangle" fill="#9B9B9B" fill-rule="nonzero" opacity="0.1" x="95.4149943" y="145.244991" width="8.53199949" height="8.53199949"></rect>
            <rect id="Rectangle" fill="#9B9B9B" fill-rule="nonzero" opacity="0.1" x="95.4149943" y="165.06299" width="8.53199949" height="8.53199949"></rect>
            <rect id="Rectangle" fill="#9B9B9B" fill-rule="nonzero" opacity="0.1" x="95.4149943" y="184.877989" width="8.53199949" height="8.53199949"></rect>
            <rect id="Rectangle" fill="#6C63FF" fill-rule="nonzero" opacity="0.1" x="95.4149943" y="204.695988" width="8.53199949" height="8.53199949"></rect>
            <rect id="Rectangle" fill="#9B9B9B" fill-rule="nonzero" opacity="0.1" x="95.4149943" y="224.513987" width="8.53199949" height="8.53199949"></rect>
            <rect id="Rectangle" fill="#9B9B9B" fill-rule="nonzero" opacity="0.1" x="312.719981" y="165.17999" width="8.53199949" height="8.53199949"></rect>
            <rect id="Rectangle" fill="#9B9B9B" fill-rule="nonzero" opacity="0.1" x="280.148983" y="186.224989" width="8.53199949" height="8.53199949"></rect>
            <rect id="Rectangle" fill="#9B9B9B" fill-rule="nonzero" opacity="0.1" x="312.719981" y="186.224989" width="8.53199949" height="8.53199949"></rect>
            <rect id="Rectangle" fill="#9B9B9B" fill-rule="nonzero" opacity="0.1" x="280.148983" y="207.266988" width="8.53199949" height="8.53199949"></rect>
            <rect id="Rectangle" fill="#9B9B9B" fill-rule="nonzero" opacity="0.1" x="312.719981" y="207.266988" width="8.53199949" height="8.53199949"></rect>
            <rect id="Rectangle" fill="#9B9B9B" fill-rule="nonzero" opacity="0.1" x="280.148983" y="228.311986" width="8.53199949" height="8.53199949"></rect>
            <rect id="Rectangle" fill="#9B9B9B" fill-rule="nonzero" opacity="0.1" x="312.719981" y="228.311986" width="8.53199949" height="8.53199949"></rect>
            <rect id="Rectangle" fill="#9B9B9B" fill-rule="nonzero" opacity="0.1" x="280.148983" y="249.356985" width="8.53199949" height="8.53199949"></rect>
            <rect id="Rectangle" fill="#9B9B9B" fill-rule="nonzero" opacity="0.1" x="312.719981" y="249.356985" width="8.53199949" height="8.53199949"></rect>
            <polygon id="Path" fill="#9B9B9B" fill-rule="nonzero" opacity="0.1" points="280.148983 275.900984 280.148983 270.398984 288.677983 270.398984 288.677983 275.117984"></polygon>
            <path d="M52.7999969,149.210991 L52.7999969,154.091991 L81.9989951,154.091991 L81.9989951,149.210991 L52.7999969,149.210991 Z M55.7099967,153.785991 L53.3279968,153.785991 L53.3279968,149.510991 L55.7279967,149.510991 L55.7099967,153.785991 Z M58.6169965,153.785991 L56.2169966,153.785991 L56.2169966,149.510991 L58.6169965,149.510991 L58.6169965,153.785991 Z M61.5179963,153.785991 L59.1179965,153.785991 L59.1179965,149.510991 L61.5179963,149.510991 L61.5179963,153.785991 Z M64.4249962,153.785991 L62.0279963,153.785991 L62.0279963,149.510991 L64.4279962,149.510991 L64.4249962,153.785991 Z M67.328996,153.785991 L64.9289961,153.785991 L64.9289961,149.510991 L67.328996,149.510991 L67.328996,153.785991 Z M70.2359958,153.785991 L67.835996,153.785991 L67.835996,149.510991 L70.2359958,149.510991 L70.2359958,153.785991 Z M73.1429956,153.785991 L70.7429958,153.785991 L70.7429958,149.510991 L73.1429956,149.510991 L73.1429956,153.785991 Z M76.0469955,153.785991 L73.6469956,153.785991 L73.6469956,149.510991 L76.0469955,149.510991 L76.0469955,153.785991 Z M78.9509953,153.785991 L76.5509954,153.785991 L76.5509954,149.510991 L78.9509953,149.510991 L78.9509953,153.785991 Z M81.8549951,153.785991 L79.4549953,153.785991 L79.4549953,149.510991 L81.8549951,149.510991 L81.8549951,153.785991 Z" id="Shape" fill="#FFFFFF" fill-rule="nonzero" opacity="0.1"></path>
            <path d="M52.7999969,163.41299 L52.7999969,168.29399 L81.9989951,168.29399 L81.9989951,163.41299 L52.7999969,163.41299 Z M55.7099967,167.98499 L53.3279968,167.98499 L53.3279968,163.72199 L55.7279967,163.72199 L55.7099967,167.98499 Z M58.6169965,167.98499 L56.2169966,167.98499 L56.2169966,163.72199 L58.6169965,163.72199 L58.6169965,167.98499 Z M61.5179963,167.98499 L59.1179965,167.98499 L59.1179965,163.72199 L61.5179963,163.72199 L61.5179963,167.98499 Z M64.4249962,167.98499 L62.0279963,167.98499 L62.0279963,163.72199 L64.4279962,163.72199 L64.4249962,167.98499 Z M67.328996,167.98499 L64.9289961,167.98499 L64.9289961,163.72199 L67.328996,163.72199 L67.328996,167.98499 Z M70.2359958,167.98499 L67.835996,167.98499 L67.835996,163.72199 L70.2359958,163.72199 L70.2359958,167.98499 Z M73.1429956,167.98499 L70.7429958,167.98499 L70.7429958,163.72199 L73.1429956,163.72199 L73.1429956,167.98499 Z M76.0469955,167.98499 L73.6469956,167.98499 L73.6469956,163.72199 L76.0469955,163.72199 L76.0469955,167.98499 Z M78.9509953,167.98499 L76.5509954,167.98499 L76.5509954,163.72199 L78.9509953,163.72199 L78.9509953,167.98499 Z M81.8549951,167.98499 L79.4549953,167.98499 L79.4549953,163.72199 L81.8549951,163.72199 L81.8549951,167.98499 Z" id="Shape" fill="#FFFFFF" fill-rule="nonzero" opacity="0.1"></path>
            <path d="M52.7999969,177.620989 L52.7999969,182.510989 L81.9989951,182.510989 L81.9989951,177.620989 L52.7999969,177.620989 Z M55.7099967,182.192989 L53.3279968,182.192989 L53.3279968,177.926989 L55.7279967,177.926989 L55.7099967,182.192989 Z M58.6169965,182.192989 L56.2169966,182.192989 L56.2169966,177.926989 L58.6169965,177.926989 L58.6169965,182.192989 Z M61.5179963,182.192989 L59.1179965,182.192989 L59.1179965,177.926989 L61.5179963,177.926989 L61.5179963,182.192989 Z M64.4249962,182.192989 L62.0279963,182.192989 L62.0279963,177.926989 L64.4279962,177.926989 L64.4249962,182.192989 Z M67.328996,182.192989 L64.9289961,182.192989 L64.9289961,177.926989 L67.328996,177.926989 L67.328996,182.192989 Z M70.2359958,182.192989 L67.835996,182.192989 L67.835996,177.926989 L70.2359958,177.926989 L70.2359958,182.192989 Z M73.1429956,182.192989 L70.7429958,182.192989 L70.7429958,177.926989 L73.1429956,177.926989 L73.1429956,182.192989 Z M76.0469955,182.192989 L73.6469956,182.192989 L73.6469956,177.926989 L76.0469955,177.926989 L76.0469955,182.192989 Z M78.9509953,182.192989 L76.5509954,182.192989 L76.5509954,177.926989 L78.9509953,177.926989 L78.9509953,182.192989 Z M81.8549951,182.192989 L79.4549953,182.192989 L79.4549953,177.926989 L81.8549951,177.926989 L81.8549951,182.192989 Z" id="Shape" fill="#FFFFFF" fill-rule="nonzero" opacity="0.1"></path>
            <path d="M52.7999969,191.828989 L52.7999969,196.703988 L81.9989951,196.703988 L81.9989951,191.828989 L52.7999969,191.828989 Z M55.7099967,196.400988 L53.3279968,196.400988 L53.3279968,192.131989 L55.7279967,192.131989 L55.7099967,196.400988 Z M58.6169965,196.400988 L56.2169966,196.400988 L56.2169966,192.131989 L58.6169965,192.131989 L58.6169965,196.400988 Z M61.5179963,196.400988 L59.1179965,196.400988 L59.1179965,192.131989 L61.5179963,192.131989 L61.5179963,196.400988 Z M64.4249962,196.400988 L62.0279963,196.400988 L62.0279963,192.131989 L64.4279962,192.131989 L64.4249962,196.400988 Z M67.328996,196.400988 L64.9289961,196.400988 L64.9289961,192.131989 L67.328996,192.131989 L67.328996,196.400988 Z M70.2359958,196.400988 L67.835996,196.400988 L67.835996,192.131989 L70.2359958,192.131989 L70.2359958,196.400988 Z M73.1429956,196.400988 L70.7429958,196.400988 L70.7429958,192.131989 L73.1429956,192.131989 L73.1429956,196.400988 Z M76.0469955,196.400988 L73.6469956,196.400988 L73.6469956,192.131989 L76.0469955,192.131989 L76.0469955,196.400988 Z M78.9509953,196.400988 L76.5509954,196.400988 L76.5509954,192.131989 L78.9509953,192.131989 L78.9509953,196.400988 Z M81.8549951,196.400988 L79.4549953,196.400988 L79.4549953,192.131989 L81.8549951,192.131989 L81.8549951,196.400988 Z" id="Shape" fill="#FFFFFF" fill-rule="nonzero" opacity="0.1"></path>
            <path d="M52.9259968,206.033988 C53.0429968,206.492988 53.1749968,206.951988 53.3129968,207.404988 L53.3129968,206.339988 L55.7129967,206.339988 L55.7129967,210.605987 L54.4289968,210.605987 C54.4679968,210.704987 54.5069968,210.812987 54.5459967,210.905987 L81.9989951,210.905987 L81.9989951,206.033988 L52.9259968,206.033988 Z M58.6259965,210.605987 L56.2259966,210.605987 L56.2259966,206.339988 L58.6259965,206.339988 L58.6259965,210.605987 Z M61.5269963,210.605987 L59.1269965,210.605987 L59.1269965,206.339988 L61.5269963,206.339988 L61.5269963,210.605987 Z M64.4339962,210.605987 L62.0279963,210.605987 L62.0279963,206.339988 L64.4279962,206.339988 L64.4339962,210.605987 Z M67.337996,210.605987 L64.9379961,210.605987 L64.9379961,206.339988 L67.337996,206.339988 L67.337996,210.605987 Z M70.2449958,210.605987 L67.844996,210.605987 L67.844996,206.339988 L70.2449958,206.339988 L70.2449958,210.605987 Z M73.1519956,210.605987 L70.7519958,210.605987 L70.7519958,206.339988 L73.1519956,206.339988 L73.1519956,210.605987 Z M76.0559955,210.605987 L73.6559956,210.605987 L73.6559956,206.339988 L76.0559955,206.339988 L76.0559955,210.605987 Z M78.9599953,210.605987 L76.5599954,210.605987 L76.5599954,206.339988 L78.9599953,206.339988 L78.9599953,210.605987 Z M81.8639951,210.605987 L79.4639953,210.605987 L79.4639953,206.339988 L81.8639951,206.339988 L81.8639951,210.605987 Z" id="Shape" fill="#FFFFFF" fill-rule="nonzero" opacity="0.1"></path>
            <path d="M59.7059964,220.241987 C59.7809964,220.337987 59.8529964,220.445987 59.9309964,220.541987 L61.5179963,220.541987 L61.5179963,222.590987 C61.6889963,222.794987 61.8569963,222.998987 62.0309963,223.190987 L62.0309963,220.529987 L64.4309962,220.529987 L64.4309962,224.810987 L63.4589962,224.810987 C63.5549962,224.909987 63.6479962,225.014987 63.7589962,225.110987 L82.0079951,225.110987 L82.0079951,220.241987 L59.7059964,220.241987 Z M67.328996,224.810987 L64.9289961,224.810987 L64.9289961,220.547987 L67.328996,220.547987 L67.328996,224.810987 Z M70.2359958,224.810987 L67.835996,224.810987 L67.835996,220.547987 L70.2359958,220.547987 L70.2359958,224.810987 Z M73.1429956,224.810987 L70.7429958,224.810987 L70.7429958,220.547987 L73.1429956,220.547987 L73.1429956,224.810987 Z M76.0469955,224.810987 L73.6469956,224.810987 L73.6469956,220.547987 L76.0469955,220.547987 L76.0469955,224.810987 Z M78.9509953,224.810987 L76.5509954,224.810987 L76.5509954,220.547987 L78.9509953,220.547987 L78.9509953,224.810987 Z M81.8549951,224.810987 L79.4549953,224.810987 L79.4549953,220.547987 L81.8549951,220.547987 L81.8549951,224.810987 Z" id="Shape" fill="#6C63FF" fill-rule="nonzero" opacity="0.1"></path>
            <path d="M75.7229955,234.446986 C75.9959955,234.602986 76.2749955,234.746986 76.5569954,234.902986 L76.5569954,234.752986 L78.9569953,234.752986 L78.9569953,236.102986 L79.4669953,236.339986 L79.4669953,234.752986 L81.8669951,234.752986 L81.8669951,237.347986 C81.9130179,237.370873 81.9612715,237.388968 82.0109951,237.401986 L82.0109951,234.446986 L75.7229955,234.446986 Z" id="Path" fill="#6C63FF" fill-rule="nonzero" opacity="0.1"></path>
            <path d="M255.263985,248.417985 L255.263985,248.417985 L255.563985,248.417985 L255.263985,248.417985 Z M235.982986,203.366988 C236.039986,203.558988 236.087986,203.750988 236.141986,203.939988 L236.141986,203.939988 C236.093986,203.750988 236.042986,203.558988 235.982986,203.366988 Z M92.5439945,114.944993 L92.5439945,116.225993 L105.944994,116.225993 L105.944994,114.944993 L92.5439945,114.944993 Z M255.263985,248.417985 L255.263985,248.417985 L255.563985,248.417985 L255.263985,248.417985 Z M235.982986,203.366988 C236.039986,203.558988 236.087986,203.750988 236.141986,203.939988 L236.141986,203.939988 C236.093986,203.750988 236.042986,203.558988 235.982986,203.366988 Z M255.263985,248.408985 L255.263985,248.408985 L255.563985,248.408985 L255.263985,248.408985 Z M235.982986,203.366988 C236.039986,203.558988 236.087986,203.750988 236.141986,203.939988 L236.141986,203.939988 C236.093986,203.750988 236.042986,203.558988 235.982986,203.366988 Z" id="Shape" fill="#6C63FF" fill-rule="nonzero" opacity="0.1"></path>
            <path d="M185.879989,173.60099 C185.879989,173.60099 184.697989,173.43599 184.697989,171.71399 C184.697989,169.99199 183.851989,166.77599 183.851989,166.77599 L183.851989,166.77599 C183.851989,166.76099 183.119989,161.17499 182.108989,160.28699 C181.097989,159.39899 179.798989,154.184991 179.798989,154.184991 C179.798989,154.184991 179.576989,151.355991 179.123989,150.746991 C178.670989,150.137991 178.058989,148.646991 177.155989,146.519991 C176.252989,144.392991 172.48799,142.919991 172.48799,142.919991 C172.48799,142.919991 165.68099,138.971992 163.75199,137.684992 L163.75199,137.684992 C163.576659,137.579247 163.41278,137.455584 163.26299,137.315992 C162.92699,136.874992 161.46299,136.865992 161.46299,136.865992 C161.30999,135.899992 161.16299,134.789992 161.11499,133.784992 C161.11499,133.676992 161.11499,133.568992 161.09999,133.460992 C163.250963,132.189534 164.871114,130.184849 165.66299,127.814992 C165.69899,127.700992 165.72899,127.580992 165.76199,127.466992 C166.022598,127.381147 166.234971,127.189467 166.34699,126.938992 C166.52099,126.551992 166.52399,126.098992 166.73999,125.738993 C166.99199,125.312993 167.47199,125.084993 167.84999,124.763993 C168.80399,123.953993 169.04999,122.588993 169.00499,121.346993 C168.97499,120.341993 168.81299,119.327993 168.87599,118.328993 L168.89399,118.076993 C168.91199,117.926993 168.93299,117.776993 168.95999,117.632993 C169.10699,116.888993 169.42799,116.186993 169.60799,115.448993 C169.78799,114.710993 169.80599,113.879993 169.38599,113.243993 C168.77099,112.310993 167.48999,112.124993 166.36499,112.028993 C165.08999,111.920993 163.94999,112.061993 163.13399,111.002993 C162.752091,110.449499 162.32245,109.930517 161.84999,109.451993 C161.68199,109.295993 160.04999,108.299994 160.04999,108.233994 C158.457161,107.496267 156.65169,107.357795 154.964991,107.843994 C154.118991,108.089994 153.320991,108.491994 152.462991,108.692994 C150.611991,109.130993 148.481991,108.656994 146.909991,109.715993 C146.033991,110.315993 145.508991,111.269993 145.016991,112.199993 C144.616991,112.965993 144.210991,113.730993 143.798991,114.494993 C143.135991,115.751993 142.460992,117.029993 142.181992,118.421993 C142.123324,118.724899 142.087225,119.031742 142.073992,119.339993 L142.073992,119.339993 L142.073992,119.354993 C142.073992,119.465993 142.073992,119.576993 142.073992,119.687993 L142.073992,119.828993 C142.073992,119.933993 142.073992,120.035993 142.091992,120.128993 C142.109992,120.221993 142.106992,120.251993 142.115992,120.314993 C142.124992,120.377993 142.139992,120.518993 142.157992,120.614993 C142.175992,120.710993 142.211992,120.878993 142.247992,121.010993 C142.262992,121.067993 142.283992,121.121993 142.301992,121.175993 C142.331992,121.277993 142.367992,121.376993 142.406992,121.475993 C142.427992,121.526993 142.448992,121.580993 142.472992,121.631993 C142.517992,121.736993 142.571992,121.838993 142.625991,121.931993 C142.649991,121.973993 142.667991,122.012993 142.691991,122.051993 C142.775691,122.191507 142.867863,122.325758 142.967991,122.453993 C143.609991,123.254993 144.554991,123.764993 145.253991,124.514993 C145.253991,124.544993 145.253991,124.574993 145.253991,124.601993 C145.253991,124.685993 145.253991,124.766993 145.253991,124.850993 C145.329272,128.247013 147.079059,131.386071 149.927991,133.235992 C149.927991,133.349992 149.942991,133.466992 149.948991,133.580992 C150.007489,134.471495 149.996456,135.365204 149.915991,136.253992 C149.668546,135.96255 149.302158,135.79922 148.919991,135.809992 C148.79109,135.803699 148.661929,135.814799 148.535991,135.842992 L148.508991,135.821992 L148.508991,135.821992 L148.508991,135.848992 C147.848991,136.010992 147.035991,136.697992 146.258991,138.650992 C146.258991,138.650992 143.894991,141.314992 142.094992,141.203992 C140.294992,141.092992 135.737992,143.975991 135.737992,143.975991 C135.737992,143.975991 131.291992,146.861991 130.337992,149.801991 C129.804749,151.469124 129.165445,153.100453 128.423992,154.685991 L122.927993,166.01099 L122.927993,166.01099 L121.913993,174.99599 C121.913993,174.99599 122.474993,178.991989 122.363993,179.600989 C122.252993,180.209989 124.670993,185.702989 124.670993,185.702989 C124.670993,185.702989 132.659992,199.739988 135.923992,200.459988 L136.157992,200.294988 C136.297641,200.367929 136.445761,200.423348 136.598992,200.459988 L137.270992,199.985988 C137.311344,200.514278 137.294244,201.045388 137.219992,201.569988 C136.769992,202.955988 137.387992,212.000987 138.173992,213.773987 C138.959992,215.546987 138.680992,238.793986 138.680992,238.793986 L138.569992,240.845986 C138.569992,240.845986 138.569992,240.911986 138.596992,241.025986 L138.569992,241.511986 L138.650992,241.553986 C138.735102,242.204861 138.707711,242.86531 138.569992,243.506985 C138.287992,244.406985 138.173992,246.950985 138.173992,246.950985 C138.173992,246.950985 135.926992,261.314984 136.991992,264.200984 C138.056992,267.086984 138.962992,270.248984 138.962992,270.248984 C138.962992,270.248984 140.087992,273.848984 139.016992,274.463984 C137.945992,275.078984 134.900992,276.110984 135.527992,277.610983 C136.097992,278.996983 138.260992,282.710983 138.581992,283.253983 L138.554992,283.538983 L138.113992,288.317983 C138.185403,288.948982 138.356533,289.564644 138.620992,290.141983 C139.103992,291.182983 140.042992,292.262983 141.827992,292.145983 C142.127992,292.124983 142.475992,292.088983 142.811991,292.043983 C146.078991,291.605983 150.101991,290.147983 150.101991,290.147983 C149.893131,290.015314 149.701651,289.857091 149.531991,289.676983 L149.531991,289.676983 C149.207466,289.362633 149.026328,288.928769 149.030991,288.476983 C149.078991,287.606983 147.449991,283.460983 147.044991,282.440983 C146.981991,282.293983 146.948991,282.209983 146.948991,282.209983 C146.948991,282.209983 150.662991,278.327983 150.044991,274.886984 C150.044991,274.886984 145.934991,272.486984 147.287991,271.169984 C148.640991,269.852984 151.058991,266.069984 151.058991,266.069984 C151.058991,266.069984 151.169991,251.924985 151.058991,249.812985 C150.943217,248.3471 151.012766,246.872467 151.265991,245.423985 C151.310991,245.204985 151.364991,244.991985 151.421991,244.781985 C153.293156,245.06131 155.182102,245.204685 157.073991,245.210985 C157.763991,245.210985 158.465991,245.210985 159.173991,245.168985 C159.173991,245.368985 159.182991,245.584985 159.200991,245.816985 C159.356991,249.320985 159.64799,255.464985 159.88499,257.747985 C160.22099,261.020984 162.07799,269.840984 162.07799,269.840984 C162.07799,269.840984 158.534991,272.114984 162.69599,277.718983 C162.69599,277.718983 162.69599,279.749983 162.41999,280.043983 L162.41999,280.043983 C162.125336,281.005075 161.887919,281.98279 161.70899,282.971983 C161.53499,284.027983 161.46299,285.095983 161.74499,285.650983 C162.41999,286.976983 166.46999,286.868983 166.46999,286.868983 L166.46999,286.868983 L166.56899,286.850983 C168.113404,286.691324 169.657411,287.157012 170.85599,288.143983 C172.39499,289.379983 178.235989,288.836983 181.397989,288.443983 C182.636989,288.287983 183.464989,288.143983 183.464989,288.143983 C183.505131,288.003733 183.519364,287.857339 183.506989,287.711983 L183.506989,287.711983 C183.473989,286.934983 182.864989,285.230983 178.736989,283.709983 C178.736989,283.709983 174.85499,281.099983 174.90899,278.825983 L174.82799,278.825983 L174.37799,278.825983 C174.70499,278.807983 174.91499,278.825983 174.91499,278.825983 C174.91499,278.825983 173.39399,273.275984 174.01499,272.825984 C174.63599,272.375984 172.77599,266.225984 172.77599,266.225984 C172.77599,266.225984 171.71099,255.905985 171.65399,255.182985 C171.656375,254.562575 171.750389,253.945919 171.93299,253.352985 L171.65399,247.694985 C171.65399,247.694985 171.59999,245.813985 171.65399,245.201985 C171.644895,244.670775 171.601807,244.140691 171.52499,243.614985 C171.49799,243.404985 171.47099,243.185986 171.44099,242.969986 C172.89599,242.600986 173.84099,242.258986 173.84099,242.258986 L173.67299,222.563987 C174.90899,220.163987 175.13699,214.898987 175.13099,211.163987 C175.13099,208.763988 175.02299,206.987988 175.02299,206.987988 L176.711989,204.230988 C176.711989,204.230988 177.101989,200.930988 176.483989,200.207988 C176.210989,199.880988 176.333989,199.541988 176.558989,199.262988 C176.675845,199.170326 176.799158,199.086113 176.927989,199.010988 C176.927989,199.010988 176.909989,198.983988 176.888989,198.944988 C177.006923,198.846458 177.132296,198.757192 177.263989,198.677988 C177.263989,198.677988 176.663989,197.747988 177.200989,197.354988 C177.704989,197.696988 178.154989,197.954988 178.496989,198.164988 C178.472989,198.383988 178.448989,198.509988 178.448989,198.509988 L178.592989,198.209988 C178.922989,198.395988 179.123989,198.509988 179.123989,198.509988 C179.123989,198.509988 181.769989,193.238988 181.712989,192.461989 C181.655989,191.684989 183.512989,188.411989 183.512989,188.411989 C183.512989,188.411989 183.737989,186.692989 184.751989,185.972989 C185.765989,185.252989 185.537989,180.035989 185.537989,180.035989 C185.537989,180.035989 185.819989,177.317989 186.494989,176.207989 C187.169989,175.09799 185.879989,173.60099 185.879989,173.60099 Z M135.251992,171.28799 L135.302992,172.54499 C135.002992,172.06199 134.786992,171.71399 134.786992,171.71399 L135.251992,171.28799 Z" id="Shape" fill="url(#linearGradient-1)" fill-rule="nonzero"></path>
            <path d="M179.267989,196.232988 L178.619989,198.992988 C178.619989,198.992988 173.42999,196.343988 172.49399,192.977988 C171.55799,189.611989 174.05999,188.333989 174.05999,188.333989 L178.895989,190.382989 L179.267989,196.232988 Z" id="Path" fill="#FFFFFF" fill-rule="nonzero"></path>
            <path d="M179.267989,196.232988 L178.619989,198.992988 C178.619989,198.992988 173.42999,196.343988 172.49399,192.977988 C171.55799,189.611989 174.05999,188.333989 174.05999,188.333989 L178.895989,190.382989 L179.267989,196.232988 Z" id="Path" fill="#000000" fill-rule="nonzero" opacity="0.1"></path>
            <path d="M150.140991,290.165983 C150.140991,290.165983 145.340991,291.929983 142.040992,292.151983 C140.288992,292.268983 139.367992,291.194983 138.893992,290.159983 C138.63505,289.584606 138.468018,288.972154 138.398992,288.344983 L138.827992,283.589983 L139.055992,281.057983 L146.066991,279.236983 L147.059991,282.272983 L147.152991,282.503983 C147.551991,283.517983 149.150991,287.642983 149.102991,288.503983 C149.099025,288.949453 149.276672,289.377322 149.594991,289.688983 C149.755965,289.870555 149.939447,290.030849 150.140991,290.165983 L150.140991,290.165983 Z" id="Path" fill="#FFFFFF" fill-rule="nonzero"></path>
            <path d="M182.927989,287.747983 C182.939998,287.892346 182.925768,288.03769 182.885989,288.176983 C182.885989,288.176983 172.61999,289.889983 170.51999,288.176983 C169.322739,287.165058 167.754054,286.705346 166.19999,286.910983 C166.19999,286.910983 162.22799,287.018983 161.56499,285.710983 C161.28899,285.161983 161.36099,284.096983 161.53199,283.046983 C161.706439,282.063128 161.938844,281.090434 162.22799,280.133983 L162.38699,280.007983 L163.33199,279.248983 L174.39599,278.921983 L174.47999,278.921983 C174.42599,281.183983 178.235989,283.778983 178.235989,283.778983 C182.282989,285.278983 182.879989,286.973983 182.927989,287.747983 Z" id="Path" fill="#FFFFFF" fill-rule="nonzero"></path>
            <path d="M182.927989,287.747983 C182.938504,287.892519 182.923267,288.037774 182.882989,288.176983 C182.882989,288.176983 172.61999,289.889983 170.51999,288.176983 C169.32348,287.16588 167.756064,286.706221 166.20299,286.910983 C166.20299,286.910983 162.22799,287.018983 161.56799,285.710983 C161.29199,285.158983 161.36099,284.096983 161.53199,283.046983 C163.06199,283.199983 165.47699,283.580983 166.42499,284.489983 C167.85899,285.872983 170.28899,287.252983 171.77999,287.360983 C172.94699,287.435983 179.927989,287.657983 182.927989,287.747983 Z" id="Path" fill="#000000" fill-rule="nonzero" opacity="0.1"></path>
            <path d="M150.140991,290.165983 C150.140991,290.165983 145.340991,291.929983 142.040992,292.151983 C140.288992,292.268983 139.367992,291.194983 138.896992,290.156983 C140.117992,290.567983 141.812992,290.999983 142.703991,290.603983 C143.759991,290.135983 147.503991,289.832983 149.603991,289.703983 C149.763818,289.878959 149.944113,290.034073 150.140991,290.165983 Z" id="Path" fill="#000000" fill-rule="nonzero" opacity="0.1"></path>
            <path d="M157.262991,148.010991 C153.302991,146.471991 148.208991,141.386992 149.480991,139.010992 C149.763493,138.411411 149.931379,137.764289 149.975991,137.102992 C150.057828,136.205279 150.069864,135.302568 150.011991,134.402992 C149.922811,132.929706 149.745493,131.463082 149.480991,130.010992 C149.480991,130.010992 161.84399,130.289992 161.12399,132.110992 C160.91399,132.644992 160.88099,133.571992 160.93799,134.609992 C160.99499,135.647992 161.14499,136.820992 161.30099,137.813992 C161.51699,139.175992 161.73299,140.213992 161.73299,140.213992 C161.73299,140.213992 160.97699,141.272992 160.53299,141.329992 C160.08899,141.386992 162.94499,150.203991 157.262991,148.010991 Z" id="Path" fill="#F2BDC7" fill-rule="nonzero"></path>
            <path d="M147.143991,282.503983 L147.050991,282.605983 C143.354991,278.135983 138.884992,283.706983 138.884992,283.706983 L138.818992,283.589983 L139.046992,281.057983 L146.057991,279.236983 L147.050991,282.272983 L147.143991,282.503983 Z" id="Path" fill="#000000" fill-rule="nonzero" opacity="0.1"></path>
            <path d="M174.48299,279.236983 C174.48299,279.236983 171.78299,279.179983 170.34299,280.451983 C168.90299,281.723983 161.94299,280.727983 162.24299,280.451983 C162.331872,280.315209 162.38547,280.158539 162.39899,279.995983 L163.34399,279.236983 L174.40799,278.909983 C174.44999,279.110983 174.48299,279.236983 174.48299,279.236983 Z" id="Path" fill="#000000" fill-rule="nonzero" opacity="0.1"></path>
            <path d="M151.742991,244.133985 C151.541898,244.631143 151.389192,245.146526 151.286991,245.672985 C151.036812,247.114733 150.967276,248.582039 151.079991,250.040985 C151.190991,252.140985 151.079991,266.213984 151.079991,266.213984 C151.079991,266.213984 148.706991,269.966984 147.383991,271.289984 C146.060991,272.612984 150.083991,274.988984 150.083991,274.988984 C150.683991,278.408983 147.047991,282.272983 147.047991,282.272983 C143.351991,277.802983 138.881992,283.376983 138.881992,283.376983 C138.881992,283.376983 136.451992,279.176983 135.845992,277.676983 C135.239992,276.176984 138.218992,275.138984 139.265992,274.529984 C140.312992,273.920984 139.214992,270.329984 139.214992,270.329984 C139.214992,270.329984 138.329992,267.182984 137.279992,264.311984 C136.229992,261.440984 138.437992,247.148985 138.437992,247.148985 C138.437992,247.148985 138.551992,244.610985 138.824992,243.725985 C138.962734,243.087356 138.99013,242.42986 138.905992,241.781986 C138.887992,241.562986 138.866992,241.379986 138.851992,241.256986 C138.836992,241.133986 138.824992,241.076986 138.824992,241.076986 L138.866992,241.004986 L140.366992,238.208986 C140.366992,238.208986 152.462991,242.372986 151.742991,244.133985 Z" id="Path" fill="#6C63FF" fill-rule="nonzero"></path>
            <path d="M174.48299,278.906983 C174.48299,278.906983 171.78299,278.849983 170.34299,280.106983 C168.90299,281.363983 161.94299,280.382983 162.24299,280.106983 C162.54299,279.830983 162.51899,277.787983 162.51899,277.787983 C158.435991,272.213984 161.91899,269.951984 161.91899,269.951984 C161.91899,269.951984 160.09499,261.176984 159.76499,257.921985 C159.53399,255.647985 159.248991,249.536985 159.095991,246.047985 C159.029991,244.547985 158.990991,243.515985 158.990991,243.515985 L162.32699,242.843986 L162.75599,242.756986 L170.80199,241.142986 C170.80199,241.142986 171.02399,242.642986 171.17399,243.869985 C171.248774,244.393858 171.290855,244.921881 171.29999,245.450985 C171.24599,246.050985 171.29999,247.928985 171.29999,247.928985 L171.57299,253.559985 C171.394634,254.15064 171.302681,254.763995 171.29999,255.380985 C171.35399,256.097985 172.40099,266.363984 172.40099,266.363984 C172.40099,266.363984 174.22199,272.489984 173.60099,272.930984 C172.97999,273.371984 174.48299,278.906983 174.48299,278.906983 Z" id="Path" fill="#6C63FF" fill-rule="nonzero"></path>
            <path d="M161.12399,132.110992 C160.91399,132.644992 160.88099,133.571992 160.93799,134.609992 C157.558764,136.6449 153.312901,136.565625 150.011991,134.405992 C149.92293,132.931701 149.745612,131.464072 149.480991,130.010992 C149.480991,130.010992 161.84399,130.283992 161.12399,132.110992 Z" id="Path" fill="#000000" fill-rule="nonzero" opacity="0.1"></path>
            <path d="M165.90299,125.480993 C165.905384,126.562048 165.735245,127.636559 165.39899,128.663992 C163.847188,133.416945 159.09693,136.360705 154.150004,135.635047 C149.203078,134.909389 145.498382,130.725384 145.376991,125.726993 C145.376991,125.642993 145.376991,125.564993 145.376991,125.480993 C145.313581,121.772015 147.255996,118.317318 150.457913,116.444283 C153.65983,114.571247 157.623151,114.571247 160.825068,116.444283 C164.026985,118.317318 165.969401,121.772015 165.90599,125.480993 L165.90299,125.480993 Z" id="Path" fill="#F2BDC7" fill-rule="nonzero"></path>
            <path d="M157.262991,148.010991 C153.302991,146.471991 148.208991,141.386992 149.480991,139.010992 C149.763493,138.411411 149.931379,137.764289 149.975991,137.102992 L155.396991,141.557992 L158.750991,144.308991 L161.30099,137.816992 C161.51699,139.178992 161.73299,140.216992 161.73299,140.216992 C161.73299,140.216992 160.97699,141.275992 160.53299,141.332992 C160.08899,141.389992 162.94499,150.203991 157.262991,148.010991 Z" id="Path" fill="#000000" fill-rule="nonzero" opacity="0.1"></path>
            <polygon id="Path" fill="#6C63FF" fill-rule="nonzero" points="171.28199 167.69999 166.75499 243.749985 160.85099 244.136985 145.562991 200.039988 148.070991 147.686991 148.598991 136.625992 155.396991 142.208992 158.753991 144.959991 161.37899 138.278992 166.25999 142.532992"></polygon>
            <path d="M151.742991,244.133985 C151.541898,244.631143 151.389192,245.146526 151.286991,245.672985 C146.990953,245.009691 142.818601,243.70621 138.908992,241.805986 L138.827992,241.763986 L138.854992,241.280986 L138.869992,241.028986 L140.369992,238.232986 C140.369992,238.232986 152.462991,242.372986 151.742991,244.133985 Z" id="Path" fill="#000000" fill-rule="nonzero" opacity="0.1"></path>
            <path d="M162.39599,245.684985 C161.29776,245.871739 160.190086,245.99793 159.077991,246.062985 C159.011991,244.562985 158.972991,243.530985 158.972991,243.530985 L162.30899,242.858986 L162.39599,245.684985 Z" id="Path" fill="#000000" fill-rule="nonzero" opacity="0.1"></path>
            <path d="M171.15599,243.884985 C169.02299,244.439985 165.72899,245.063985 162.77999,244.673985 L162.73799,242.771986 L170.78399,241.157986 C170.78399,241.157986 171.00599,242.642986 171.15599,243.884985 Z" id="Path" fill="#000000" fill-rule="nonzero" opacity="0.1"></path>
            <path d="M162.72599,245.021985 C150.425991,247.121985 139.160992,241.100986 139.160992,241.100986 L139.268992,239.060986 C139.268992,239.060986 139.547992,215.933987 138.773992,214.160987 C137.999992,212.387987 137.396992,203.396988 137.834992,202.016988 C138.272992,200.636988 136.235992,179.942989 136.235992,179.942989 L135.905992,171.54299 L123.827993,166.64999 L129.227992,155.393991 C129.957359,153.815852 130.584649,152.192514 131.105992,150.533991 C132.044992,147.611991 136.403992,144.740991 136.403992,144.740991 C136.403992,144.740991 140.873992,141.872992 142.640991,141.980992 C144.407991,142.088992 146.723991,139.442992 146.723991,139.442992 C148.433991,135.083992 149.981991,137.057992 149.981991,137.057992 C149.981991,137.264992 149.981991,137.057992 149.897991,137.702992 C149.297991,142.487992 159.59999,157.607991 159.74699,157.874991 L159.74699,157.874991 L160.72799,181.772989 L161.72099,212.015987 L162.72599,245.021985 Z" id="Path" fill="#000000" fill-rule="nonzero" opacity="0.1"></path>
            <path d="M162.39599,245.021985 C150.095991,247.121985 138.827992,241.100986 138.827992,241.100986 L138.938992,239.060986 C138.938992,239.060986 139.217992,215.933987 138.440992,214.160987 C137.663992,212.387987 137.063992,203.396988 137.504992,202.016988 C137.945992,200.636988 135.905992,179.942989 135.905992,179.942989 L135.572992,171.54299 L123.488993,166.63199 L128.888992,155.375991 C129.616772,153.79718 130.244022,152.173944 130.766992,150.515991 C131.702992,147.593991 136.064992,144.722991 136.064992,144.722991 C136.064992,144.722991 140.534992,141.854992 142.298992,141.962992 C144.062991,142.070992 146.381991,139.424992 146.381991,139.424992 C148.094991,135.065992 149.981991,137.039992 149.981991,137.039992 C149.981991,137.246992 149.801991,137.339992 149.897991,137.684992 C151.217991,142.325992 159.269991,157.589991 159.41699,157.856991 L159.41699,157.856991 L160.40999,181.754989 L161.40299,211.997987 L162.39599,245.021985 Z" id="Path" fill="#FFFFFF" fill-rule="nonzero"></path>
            <path d="M159.080991,158.537991 C157.757991,157.985991 150.749991,149.984991 150.749991,149.984991 L150.749991,148.163991 C150.494991,147.563991 148.979991,147.929991 147.749991,148.349991 L148.277991,137.288992 L148.877991,137.786992 C150.191991,142.424992 158.927991,158.270991 159.080991,158.537991 Z" id="Path" fill="#000000" fill-rule="nonzero" opacity="0.1"></path>
            <path d="M159.41399,157.874991 C158.087991,157.322991 151.079991,149.321991 151.079991,149.321991 L151.079991,147.500991 C150.824991,146.900991 149.309991,147.266991 148.079991,147.686991 L148.610991,136.625992 L149.210991,137.123992 C150.527991,141.761992 159.266991,157.610991 159.41399,157.874991 Z" id="Path" fill="#FFFFFF" fill-rule="nonzero"></path>
            <path d="M139.160992,197.777988 C139.325992,197.777988 147.713991,196.895988 147.713991,196.895988 C147.713991,196.895988 152.792991,206.882988 152.459991,209.312988 C152.126991,211.742987 151.523991,213.893987 149.480991,213.512987 C147.437991,213.131987 138.485992,213.812987 138.485992,213.812987 L139.160992,197.777988 Z" id="Path" fill="#000000" fill-rule="nonzero" opacity="0.1"></path>
            <path d="M138.827992,197.114988 C138.992992,197.114988 147.380991,196.232988 147.380991,196.232988 C147.380991,196.232988 152.456991,206.222988 152.126991,208.649988 C151.796991,211.076987 151.187991,213.230987 149.147991,212.849987 C147.107991,212.468987 138.152992,213.149987 138.152992,213.149987 L138.827992,197.114988 Z" id="Path" fill="#FFFFFF" fill-rule="nonzero"></path>
            <path d="M145.148991,192.425989 C145.148991,192.425989 152.846991,196.562988 153.011991,197.825988 C153.176991,199.088988 149.093991,197.273988 148.211991,197.054988 C147.631473,196.915106 147.040515,196.8228 146.444991,196.778988 L140.561992,196.937988 L145.148991,192.425989 Z" id="Path" fill="#F2BDC7" fill-rule="nonzero"></path>
            <circle id="Oval" fill="#000000" fill-rule="nonzero" opacity="0.1" cx="156.932991" cy="158.243991" r="1"></circle>
            <circle id="Oval" fill="#3F3D56" fill-rule="nonzero" cx="156.932991" cy="157.913991" r="1"></circle>
            <circle id="Oval" fill="#000000" fill-rule="nonzero" opacity="0.1" cx="158.423991" cy="193.307988" r="1"></circle>
            <circle id="Oval" fill="#3F3D56" fill-rule="nonzero" cx="158.423991" cy="192.974988" r="1"></circle>
            <circle id="Oval" fill="#000000" fill-rule="nonzero" opacity="0.1" cx="157.739991" cy="175.77599" r="1"></circle>
            <circle id="Oval" fill="#3F3D56" fill-rule="nonzero" cx="157.739991" cy="175.44599" r="1"></circle>
            <path d="M176.411989,196.610988 C176.411989,196.610988 176.963989,197.438988 176.411989,197.825988 C175.85999,198.212988 176.465989,199.148988 176.465989,199.148988 C176.465989,199.148988 175.08899,199.955988 175.69499,200.681988 C176.300989,201.407988 175.91699,204.686988 175.91699,204.686988 L174.26099,207.428988 C174.26099,207.428988 174.35999,209.195988 174.36599,211.583987 C174.36599,215.309987 174.14699,220.547987 172.93499,222.935987 L173.10299,242.528986 C173.10299,242.528986 167.30399,244.646985 162.44999,244.001985 L161.72999,212.561987 C161.72999,212.561987 162.77999,194.732988 163.16699,191.312989 C163.393465,189.537464 163.485726,187.747389 163.44299,185.957989 C163.44299,185.957989 163.27799,180.605989 162.72299,178.121989 C162.72299,178.121989 162.12299,167.36099 162.06299,164.38199 C162.03599,162.95699 162.11099,158.798991 162.19499,154.844991 C162.28799,150.521991 162.39299,146.444991 162.39299,146.444991 L161.29799,137.780992 C161.29799,137.780992 162.39299,137.669992 162.72299,138.110992 C162.870807,138.249076 163.031545,138.372643 163.20299,138.479992 L163.20299,138.479992 C165.09299,139.757992 171.77099,143.687991 171.77099,143.687991 C171.77099,143.687991 175.46699,145.157991 176.351989,147.263991 C177.236989,149.369991 177.851989,150.863991 178.280989,151.463991 C178.709989,152.063991 178.943989,154.883991 178.943989,154.883991 C178.943989,154.883991 180.215989,160.07399 181.208989,160.95299 C182.201989,161.83199 182.927989,167.42399 182.927989,167.42399 L174.15299,174.32399 C174.15299,174.32399 173.38199,185.801989 173.21699,186.245989 C173.05199,186.689989 176.411989,196.610988 176.411989,196.610988 Z" id="Path" fill="#FFFFFF" fill-rule="nonzero"></path>
            <path d="M176.744989,196.610988 C176.744989,196.610988 177.293989,197.438988 176.744989,197.825988 C176.195989,198.212988 176.795989,199.148988 176.795989,199.148988 C176.795989,199.148988 175.42799,199.964988 176.02799,200.690988 C176.627989,201.416988 176.249989,204.695988 176.249989,204.695988 L174.59399,207.437988 C174.59399,207.437988 174.69299,209.204988 174.70199,211.592987 C174.70199,215.318987 174.48299,220.556987 173.27099,222.944987 L173.43599,242.537986 C173.43599,242.537986 167.62799,244.655985 162.77999,244.010985 L162.06299,212.570987 C162.06299,212.570987 163.11299,194.741988 163.49999,191.321989 C163.726723,189.5465 163.817986,187.75633 163.77299,185.966989 C163.77299,185.966989 163.60799,180.614989 163.05599,178.130989 C163.05599,178.130989 162.45599,167.36999 162.39299,164.39099 C162.36599,162.96599 162.44399,158.807991 162.52499,154.853991 C162.61799,150.530991 162.72299,146.453991 162.72299,146.453991 L161.27699,137.672992 C161.27699,137.672992 162.72299,137.672992 163.05599,138.119992 C163.20242,138.259703 163.363329,138.383403 163.53599,138.488992 L163.53599,138.488992 C165.42599,139.766992 172.10699,143.696991 172.10699,143.696991 C172.10699,143.696991 175.79999,145.166991 176.684989,147.272991 C177.569989,149.378991 178.184989,150.872991 178.616989,151.472991 C179.048989,152.072991 179.276989,154.892991 179.276989,154.892991 C179.276989,154.892991 180.548989,160.08299 181.541989,160.96199 C182.534989,161.84099 183.251989,167.42099 183.251989,167.42099 L174.47699,174.32099 C174.47699,174.32099 173.70599,185.798989 173.53799,186.242989 C173.36999,186.686989 176.744989,196.610988 176.744989,196.610988 Z" id="Path" fill="#FFFFFF" fill-rule="nonzero"></path>
            <path d="M166.23599,149.000991 L167.02799,151.310991 L162.85799,155.510991 C162.95099,151.190991 163.05599,147.110991 163.05599,147.110991 L161.60999,138.329992 C161.60999,138.329992 163.05599,138.329992 163.38899,138.776992 C163.535001,138.916322 163.695981,139.039069 163.86899,139.142992 L163.86899,139.142992 L167.41499,149.372991 L166.23599,149.000991 Z" id="Path" fill="#000000" fill-rule="nonzero" opacity="0.1"></path>
            <path d="M165.90299,148.337991 L166.69799,150.647991 L162.52799,154.847991 C162.62099,150.524991 162.72599,146.447991 162.72599,146.447991 L161.27699,137.666992 C161.27699,137.666992 162.72599,137.666992 163.05599,138.113992 C163.203138,138.252864 163.363956,138.376493 163.53599,138.482992 L163.53599,138.482992 L167.08499,148.709991 L165.90299,148.337991 Z" id="Path" fill="#FFFFFF" fill-rule="nonzero"></path>
            <path d="M165.90299,125.480993 C165.905384,126.562048 165.735245,127.636559 165.39899,128.663992 C165.284483,128.681865 165.167616,128.652648 165.07499,128.582992 C164.99699,125.882992 163.66799,123.347993 162.03299,121.190993 C161.573956,120.539735 161.017445,119.962986 160.38299,119.480993 C159.74156,118.999238 158.943729,118.773578 158.144991,118.847993 C157.244991,118.970993 156.449991,119.582993 155.540991,119.660993 C154.340991,119.759993 153.266991,118.928993 152.075991,118.886993 C151.096496,118.896295 150.168452,119.326978 149.528991,120.068993 C148.903301,120.809184 148.438451,121.671454 148.163991,122.600993 C147.692298,124.01052 147.435422,125.48301 147.401991,126.968992 C147.386991,127.808992 147.305991,128.861992 146.525991,129.167992 C146.644705,127.918985 146.23447,126.677401 145.394991,125.744993 L145.376991,125.726993 C145.376991,125.642993 145.376991,125.564993 145.376991,125.480993 C145.313581,121.772015 147.255996,118.317318 150.457913,116.444283 C153.65983,114.571247 157.623151,114.571247 160.825068,116.444283 C164.026985,118.317318 165.969401,121.772015 165.90599,125.480993 L165.90299,125.480993 Z" id="Path" fill="#000000" fill-rule="nonzero" opacity="0.1"></path>
            <path d="M159.89099,109.181993 C158.332063,108.448682 156.558979,108.309993 154.904991,108.791994 C154.073991,109.037994 153.290991,109.436993 152.447991,109.637993 C150.647991,110.072993 148.547991,109.601993 147.002991,110.654993 C146.144991,111.254993 145.628991,112.202993 145.148991,113.123993 L143.948991,115.409993 C143.294991,116.660993 142.634991,117.932993 142.361992,119.309993 C142.088992,120.686993 142.253992,122.228993 143.126991,123.335993 C143.762991,124.142993 144.701991,124.649993 145.391991,125.408993 C146.22764,126.342287 146.636422,127.581679 146.519991,128.828992 C147.302991,128.528992 147.377991,127.472992 147.395991,126.632992 C147.429422,125.14701 147.686298,123.67452 148.157991,122.264993 C148.431798,121.335185 148.896717,120.472786 149.522991,119.732993 C150.162933,118.991614 151.090672,118.561073 152.069991,118.550993 C153.269991,118.592993 154.346991,119.420993 155.534991,119.321993 C156.434991,119.246993 157.232991,118.631993 158.138991,118.511993 C158.937836,118.436406 159.736083,118.662184 160.37699,119.144993 C161.011244,119.626249 161.566871,120.203129 162.02399,120.854993 C163.66199,123.011993 164.99099,125.540993 165.06899,128.246992 C165.40799,128.495992 165.89699,128.171992 166.06499,127.787992 C166.23299,127.403992 166.23899,126.953992 166.45199,126.587992 C166.69799,126.164992 167.16899,125.939992 167.53799,125.621993 C168.47399,124.814993 168.70799,123.455993 168.67199,122.222993 C168.63599,120.989993 168.39599,119.738993 168.62999,118.526993 C168.77099,117.782993 169.08899,117.086993 169.26299,116.351993 C169.43699,115.616993 169.45799,114.791993 169.04699,114.158993 C168.44699,113.228993 167.18399,113.045993 166.08299,112.958993 C164.83199,112.850993 163.71299,112.988993 162.91499,111.935993 C162.540406,111.386498 162.118823,110.870561 161.65499,110.393993 C161.49599,110.237993 159.89099,109.247993 159.89099,109.181993 Z" id="Path" fill="#542F0E" fill-rule="nonzero"></path>
            <path d="M127.283992,172.44599 L124.148993,166.64999 L123.155993,175.59299 C123.155993,175.59299 123.707993,179.564989 123.596993,180.173989 C123.485993,180.782989 125.858992,186.242989 125.858992,186.242989 C125.858992,186.242989 133.697992,200.204988 136.898992,200.924988 L147.713991,193.196988 L144.845991,189.554989 C144.845991,189.554989 143.852991,189.167989 143.603991,189.554989 C143.603991,189.554989 138.278992,180.392989 137.726992,179.729989 C137.174992,179.066989 137.282992,177.743989 137.282992,177.743989 C137.282992,177.743989 136.454992,176.861989 136.730992,176.03399 C137.006992,175.20599 135.131992,172.33499 135.131992,172.33499 L136.841992,170.73599 L127.283992,172.44599 Z" id="Path" fill="#000000" fill-rule="nonzero" opacity="0.1"></path>
            <path d="M124.313993,165.98999 L123.485993,166.64999 L122.492993,175.59299 C122.492993,175.59299 123.044993,179.564989 122.933993,180.173989 C122.822993,180.782989 125.198993,186.242989 125.198993,186.242989 C125.198993,186.242989 133.034992,200.204988 136.235992,200.924988 L147.053991,193.196988 L144.182991,189.554989 C144.182991,189.554989 143.189991,189.167989 142.940991,189.554989 C142.940991,189.554989 137.615992,180.392989 137.063992,179.729989 C136.511992,179.066989 136.622992,177.743989 136.622992,177.743989 C136.622992,177.743989 135.794992,176.861989 136.070992,176.03399 C136.346992,175.20599 134.468992,172.33499 134.468992,172.33499 L136.178992,170.73599 L124.313993,165.98999 Z" id="Path" fill="#FFFFFF" fill-rule="nonzero"></path>
            <path d="M175.69499,201.023988 C176.294989,201.752988 175.91699,205.025988 175.91699,205.025988 L174.26099,207.767988 C174.26099,207.767988 174.35999,209.537988 174.36599,211.922987 L171.58199,212.792987 C171.071484,212.952429 170.515384,212.855025 170.089462,212.531563 C169.66354,212.2081 169.420436,211.698556 169.43699,211.163987 L169.91699,195.680988 L176.411989,198.164988 C175.85999,198.548988 176.465989,199.490988 176.465989,199.490988 C176.465989,199.490988 175.08899,200.294988 175.69499,201.023988 Z" id="Path" fill="#000000" fill-rule="nonzero" opacity="0.1"></path>
            <path d="M176.02799,200.690988 C176.627989,201.419988 176.249989,204.695988 176.249989,204.695988 L174.59399,207.437988 C174.59399,207.437988 174.69299,209.204988 174.70199,211.592987 L171.86699,212.477987 C171.367041,212.633347 170.822831,212.537525 170.406015,212.220744 C169.989198,211.903964 169.751163,211.40528 169.76699,210.881987 L170.24999,195.350988 L176.747989,197.834988 C176.192989,198.218988 176.798989,199.157988 176.798989,199.157988 C176.798989,199.157988 175.42799,199.964988 176.02799,200.690988 Z" id="Path" fill="#FFFFFF" fill-rule="nonzero"></path>
            <path d="M178.178989,193.310988 C178.178989,193.310988 177.737989,196.127988 176.633989,196.292988 C175.52999,196.457988 175.03499,200.849988 173.93399,200.693988 C172.83299,200.537988 173.56199,196.610988 173.60099,195.848988 C173.63999,195.086988 172.40099,191.930989 173.32799,191.213989 C174.25499,190.496989 177.188989,191.213989 177.188989,191.213989 L178.178989,193.310988 Z" id="Path" fill="#F2BDC7" fill-rule="nonzero"></path>
            <path d="M180.527989,171.61799 L182.609989,167.41799 C182.609989,167.41799 183.437989,170.61899 183.437989,172.32899 C183.437989,174.03899 184.595989,174.20699 184.595989,174.20699 C184.595989,174.20699 185.864989,175.70699 185.195989,176.798989 C184.526989,177.890989 184.256989,180.608989 184.256989,180.608989 C184.256989,180.608989 184.475989,185.795989 183.482989,186.512989 C182.489989,187.229989 182.282989,188.942989 182.282989,188.942989 C182.282989,188.942989 180.458989,192.197989 180.515989,192.971988 C180.572989,193.745988 177.977989,198.986988 177.977989,198.986988 C177.977989,198.986988 179.246989,192.473989 171.85199,189.659989 C171.85199,189.659989 171.79499,187.448989 172.34699,186.842989 C172.89899,186.236989 173.75999,185.960989 173.21999,182.897989 C172.67999,179.834989 173.06399,176.174989 173.06399,175.43999 C173.06399,174.70499 174.71999,170.12099 174.71999,170.12099 L180.527989,171.61799 Z" id="Path" fill="#000000" fill-rule="nonzero" opacity="0.1"></path>
            <path d="M181.427989,166.81799 L183.245989,167.41799 C183.245989,167.41799 184.076989,170.61899 184.076989,172.32899 C184.076989,174.03899 185.234989,174.20699 185.234989,174.20699 C185.234989,174.20699 186.503989,175.70699 185.834989,176.798989 C185.165989,177.890989 184.898989,180.608989 184.898989,180.608989 C184.898989,180.608989 185.117989,185.795989 184.124989,186.512989 C183.131989,187.229989 182.909989,188.942989 182.909989,188.942989 C182.909989,188.942989 181.088989,192.197989 181.145989,192.971988 C181.202989,193.745988 178.604989,198.986988 178.604989,198.986988 C178.604989,198.986988 179.876989,192.473989 172.47899,189.659989 C172.47899,189.659989 172.42499,187.448989 172.97699,186.842989 C173.52899,186.236989 174.38999,185.960989 173.84999,182.897989 C173.30999,179.834989 173.69399,176.174989 173.69399,175.43999 C173.69399,174.70499 175.34999,170.12099 175.34999,170.12099 L181.427989,166.81799 Z" id="Path" fill="#FFFFFF" fill-rule="nonzero"></path>
            <path d="M141.272992,275.678984 C141.272992,275.678984 144.170991,273.857984 146.072991,275.180984 C147.974991,276.503984 141.272992,275.678984 141.272992,275.678984 Z" id="Path" fill="#000000" fill-rule="nonzero" opacity="0.1"></path>
            <path d="M163.79099,270.047984 C163.79099,270.047984 166.35599,269.717984 168.50999,272.036984 C170.66399,274.355984 163.79099,270.047984 163.79099,270.047984 Z" id="Path" fill="#000000" fill-rule="nonzero" opacity="0.1"></path>
            <g id="Group" opacity="0.1" transform="translate(142.199992, 114.899993)" fill="#000000" fill-rule="nonzero">
                <path d="M25.3439985,10.0649994 C24.9749985,10.3829994 24.5009985,10.6109994 24.2549986,11.0339993 C24.0449986,11.3969993 24.0389986,11.8439993 23.8709986,12.2339993 C23.7029986,12.6239992 23.2139986,12.9419992 22.8749986,12.6959992 C22.7969986,9.9959994 21.4649987,7.46099956 19.8299988,5.30099968 C19.3728792,4.64913634 18.817252,4.07225561 18.1829989,3.59099979 C17.5409075,3.1082572 16.7417652,2.88252894 15.941999,2.95799982 C15.0419991,3.08099982 14.2499992,3.69299978 13.3409992,3.76799978 C12.1409993,3.86999977 11.0639993,3.03899982 9.87299941,2.99699982 C8.89381273,3.00674524 7.96649199,3.438693 7.32899956,4.18199975 C6.70272407,4.92065985 6.23777983,5.78208402 5.96399964,6.7109996 C5.49257239,8.12059421 5.23570281,9.59304351 5.20199969,11.0789993 C5.18399969,11.9159993 5.1059997,12.9599992 4.33199974,13.2719992 C4.35001622,13.4936337 4.35001622,13.7163647 4.33199974,13.9379992 C5.1119997,13.6379992 5.18999969,12.5819993 5.20799969,11.7419993 C5.24143032,10.2560168 5.49830696,8.78352703 5.96999964,7.37399956 C6.2438065,6.44419191 6.70872561,5.58179252 7.33499956,4.84199971 C7.97377185,4.10076643 8.90055496,3.67016201 9.87899941,3.65999978 C11.0789993,3.70199978 12.1589993,4.52999973 13.3469992,4.43099974 C14.2469992,4.35599974 15.0449991,3.74099978 15.947999,3.62099978 C16.7477652,3.5455289 17.5469075,3.77125716 18.1889989,4.25399975 C18.823252,4.73525557 19.3788792,5.3121363 19.8359988,5.96399964 C21.4709987,8.12099952 22.8029986,10.6499994 22.8809986,13.3559992 C23.2199986,13.6049992 23.7089986,13.2809992 23.8769986,12.8969992 C24.0449986,12.5129993 24.0509986,12.0629993 24.2609986,11.6969993 C24.5069985,11.2739993 24.9809985,11.0489993 25.3499985,10.7309994 C26.2859984,9.92399941 26.5199984,8.56499949 26.4839984,7.33199956 C26.4839984,7.29299957 26.4839984,7.25399957 26.4839984,7.21799957 C26.4269984,8.28599951 26.1419984,9.37499944 25.3439985,10.0649994 Z" id="Path"></path>
                <path d="M3.19799981,9.85199941 C2.50799985,9.09299946 1.56599991,8.58599949 0.932999944,7.78199954 C0.399988112,7.0702566 0.0955690902,6.21348967 0.0599999964,5.32499968 C-0.0344132157,6.43528046 0.275630686,7.5422757 0.932999944,8.4419995 C1.56599991,9.24899945 2.50799985,9.75599942 3.19799981,10.5149994 C3.86048707,11.2574251 4.25822383,12.1984892 4.32899974,13.1909992 C4.4218015,11.9705008 4.01342196,10.7648604 3.19799981,9.85199941 Z" id="Path"></path>
                <path d="M27.0689984,0.794999953 C26.8919984,1.52999991 26.5769984,2.22899987 26.4329984,2.96999982 C26.3477133,3.46515002 26.31653,3.96810682 26.3399984,4.46999973 C26.3500385,4.18410163 26.3811226,3.8993313 26.4329984,3.61799978 C26.5769984,2.87399983 26.8919984,2.17799987 27.0689984,1.44299991 C27.1721592,1.03760429 27.2056364,0.61761871 27.1679984,0.200999988 C27.1493569,0.40112712 27.1162706,0.599644608 27.0689984,0.794999953 L27.0689984,0.794999953 Z" id="Path"></path>
            </g>
            <ellipse id="Oval" fill="#FBDF00" fill-rule="nonzero" opacity="0.1" cx="87.2189948" cy="283.181983" rx="29.2319983" ry="4.69499972"></ellipse>
            <rect id="Rectangle" fill="#535461" fill-rule="nonzero" x="86.2799949" y="193.241988" width="1.88099989" height="42.3509975"></rect>
            <path d="M99.980994,235.463986 L99.863994,237.371986 L99.6959941,240.071986 L99.6269941,241.193986 L99.4619941,243.893985 L99.3899941,245.015985 L99.2219941,247.715985 L97.3259942,278.336983 C97.1549532,281.071465 94.8878198,283.201992 92.1479945,283.202983 L82.2899951,283.202983 C79.550737,283.201896 77.2845155,281.070991 77.1149954,278.336983 L75.2279955,247.694985 L75.0599955,244.994985 L74.9909955,243.872985 L74.8229955,241.172986 L74.7539955,240.050986 L74.5859956,237.350986 L74.4659956,235.442986 C74.4238686,234.700781 74.6896236,233.974044 75.2006095,233.434102 C75.7115954,232.89416 76.4225963,232.588792 77.1659954,232.589986 L97.3289942,232.589986 C98.0696314,232.596369 98.7746571,232.908751 99.2769409,233.453081 C99.7792246,233.997411 100.034045,234.725224 99.980994,235.463986 Z" id="Path" fill="#FBDF00" fill-rule="nonzero"></path>
            <polygon id="Path" fill="#D51A0D" fill-rule="nonzero" points="99.863994 238.262986 99.6959941 240.062986 74.7419955 240.062986 74.5739956 238.262986"></polygon>
            <polygon id="Path" fill="#D51A0D" fill-rule="nonzero" points="99.6269941 241.784986 99.4619941 243.584985 74.9789955 243.584985 74.8109955 241.784986"></polygon>
            <polygon id="Path" fill="#D51A0D" fill-rule="nonzero" points="99.3899941 245.603985 99.2249941 247.403985 75.2159955 247.403985 75.0479955 245.603985"></polygon>
            <polygon id="Path-Copy" fill="#D51A0D" fill-rule="nonzero" points="99.1602234 249.803985 98.9220007 251.603985 75.4753829 251.603985 75.3228611 249.803985 99.3899941 249.803985"></polygon>
            <polygon id="Path-Copy-2" fill="#D51A0D" fill-rule="nonzero" points="98.8595398 253.403985 98.7020457 255.203985 75.7471174 255.203985 75.5737774 253.403985"></polygon>
            <polygon id="Path-Copy-3" fill="#D51A0D" fill-rule="nonzero" points="98.6009899 257.603985 98.4299616 259.403985 75.997895 259.403985 75.8348557 257.603985"></polygon>
            <polygon id="Path-Copy-4" fill="#D51A0D" fill-rule="nonzero" points="98.3381425 261.803984 98.1706434 263.603984 76.2554457 263.603984 76.0866566 261.803984"></polygon>
            <polygon id="Path-Copy-5" fill="#D51A0D" fill-rule="nonzero" points="98.0985309 266.003984 97.9097511 267.803984 76.5063393 267.803984 76.3490284 266.003984"></polygon>
            <polygon id="Path-Copy-6" fill="#D51A0D" fill-rule="nonzero" points="97.8783792 269.603984 97.6899192 271.403984 76.739452 271.403984 76.561433 269.603984"></polygon>
            <polygon id="Path-Copy-7" fill="#D51A0D" fill-rule="nonzero" points="97.6164582 273.803984 97.4394037 275.603984 76.9808162 275.603984 76.8175142 273.803984"></polygon>
            <path d="M97.3391539,278.294983 C97.3406087,278.76101 97.2991432,279.128352 97.2147572,279.397008 C97.0881782,279.799993 97.0446301,279.918687 96.894229,280.236734 C96.8286025,280.375511 96.7210829,280.528261 96.5716704,280.694983 L77.8435745,280.694983 C77.4909782,280.152095 77.2929567,279.73976 77.24951,279.457981 C77.2297185,279.32962 77.248305,279.462975 77.1946542,279.241921 C77.158887,279.094551 77.1211641,278.778906 77.0814853,278.294983 L97.3391539,278.294983 Z" id="Path-Copy-8" fill="#D51A0D" fill-rule="nonzero"></path>
            <path d="M71.7029957,209.114988 C82.6559951,217.040987 87.2279948,229.436986 87.2279948,229.436986 C87.2279948,229.436986 74.0279956,228.983986 63.0719962,221.057987 C52.1159969,213.131987 47.5529972,200.738988 47.5529972,200.738988 C47.5529972,200.738988 60.7469964,201.188988 71.7029957,209.114988 Z" id="Path" fill="#FBDF00" fill-rule="nonzero"></path>
            <path d="M47.5439972,200.738988 C47.5439972,200.738988 61.2479963,208.343988 65.6429961,214.640987 C70.0379958,220.937987 87.2279948,229.436986 87.2279948,229.436986" id="Path" stroke="#535461" stroke-width="0.599999964"></path>
            <path d="M78.7739953,193.148988 C84.7349949,197.459988 87.2279948,204.206988 87.2279948,204.206988 C87.2279948,204.206988 80.0429952,203.960988 74.0789956,199.649988 C68.1149959,195.338988 65.6279961,188.588989 65.6279961,188.588989 C65.6279961,188.588989 72.8099957,188.834989 78.7739953,193.148988 Z" id="Path" fill="#FBDF00" fill-rule="nonzero"></path>
            <path d="M65.6279961,188.588989 C65.6279961,188.588989 73.0859956,192.728989 75.4769955,196.154988 C77.8679954,199.580988 87.2279948,204.206988 87.2279948,204.206988" id="Path" stroke="#535461" stroke-width="0.599999964"></path>
            <path d="M95.8829943,203.864988 C89.0339947,211.391987 87.5849948,221.228987 87.5849948,221.228987 C87.5849948,221.228987 97.2419942,218.858987 104.084994,211.328987 C110.927993,203.798988 112.382993,193.964988 112.382993,193.964988 C112.382993,193.964988 102.731994,196.337988 95.8829943,203.864988 Z" id="Path" fill="#FBDF00" fill-rule="nonzero"></path>
            <path d="M112.388993,193.967988 C112.388993,193.967988 103.466994,201.683988 101.198994,206.999988 C98.9309941,212.315987 87.5849948,221.228987 87.5849948,221.228987" id="Path" stroke="#535461" stroke-width="0.599999964"></path>
            <g id="Group" transform="translate(33.227998, 30.110998)"></g>
            <path d="M297.449982,177.623989 L297.539982,177.530989 L297.449982,177.623989 Z" id="Path" fill="#FFB0B1" fill-rule="nonzero"></path>
            <path d="M259.157985,75.1259955 L258.932985,75.1259955 C249.980985,75.1259955 242.063986,79.8629952 237.509986,86.8529948 C232.955986,79.8629952 225.038987,75.1259955 216.086987,75.1259955 L215.861987,75.1259955 C201.879561,75.2592438 190.612579,86.6279346 190.604989,100.610994 C190.604989,108.953994 194.258988,120.791993 201.383988,130.532992 C214.958987,149.093991 237.509986,165.33299 237.509986,165.33299 C237.509986,165.33299 260.060984,149.096991 273.632984,130.532992 C280.760983,120.791993 284.411983,108.953994 284.411983,100.610994 C284.404409,86.6290925 273.139237,75.2608777 259.157985,75.1259955 L259.157985,75.1259955 Z M255.938985,131.960992 C253.852192,131.953049 251.984762,130.663604 251.237985,128.714992 L245.885985,128.714992 C245.163487,128.710497 244.52356,128.247725 244.292985,127.562992 L242.648986,122.609993 L237.446986,140.786992 C237.238909,141.505759 236.581264,142.000826 235.832986,142.001992 L235.727986,142.001992 C234.944707,141.964131 234.294468,141.383918 234.167986,140.609992 L228.806986,108.365994 L224.888987,127.445992 C224.704122,128.191853 224.034415,128.715487 223.265987,128.714992 L215.726987,128.714992 C215.111477,128.741043 214.531238,128.427515 214.215715,127.898385 C213.900193,127.369256 213.900193,126.709728 214.215715,126.180599 C214.531238,125.65147 215.111477,125.337942 215.726987,125.363993 L221.945987,125.363993 L227.495986,99.7109941 C227.68388,98.9288157 228.399024,98.3889588 229.202751,98.4225692 C230.006479,98.4561796 230.674053,99.0538593 230.795986,99.848994 L236.270986,132.740992 L240.932986,116.477993 C241.132345,115.774543 241.770878,115.286182 242.501986,115.277993 L242.534986,115.277993 C243.258187,115.278223 243.899471,115.742852 244.124985,116.429993 L247.097985,125.372993 L251.171985,125.372993 C251.975796,122.930911 254.492393,121.488612 257.005811,122.029542 C259.519229,122.570471 261.219687,124.92035 260.947711,127.476891 C260.675735,130.033432 258.518952,131.972961 255.947985,131.972992 L255.938985,131.960992 Z" id="Shape" fill="#FFFFFF" fill-rule="nonzero"></path>
            <text id="Actualment-estem-tre" font-family="Raleway-SemiBold, Raleway" font-size="13.1999992" font-weight="500" letter-spacing="-0.179799296" fill="#FFFFFF">
                <tspan x="221.999987" y="182.39999"></tspan>
                <tspan x="221.999987" y="197.39999">Actualment estem </tspan>
                <tspan x="221.999987" y="212.39999">treballant en aquest lloc</tspan>
                <tspan x="221.999987" y="227.39999"></tspan>
                <tspan x="221.999987" y="242.39999">Visiteu aquesta pgina </tspan>
                <tspan x="221.999987" y="257.39999">una altra vegada</tspan>
                <tspan x="221.999987" y="272.39999"></tspan>
                <tspan x="221.999987" y="287.39999">Grcies</tspan>
            </text>
            <text font-family="Raleway-SemiBold, Raleway" font-size="13.1999992" font-weight="500" letter-spacing="-0.179799296" fill="#FFFFFF">
                <tspan x="194.399988" y="197.399989">503 </tspan>
            </text>
        </g>
    </g>
</svg>